# Blender 4.0.2
# www.blender.org
mtllib donut.mtl
o Donut5.001
v 0.735312 0.000000 0.000000
v 0.678754 0.155392 -0.000000
v 0.535545 0.238074 -0.000000
v 0.372692 0.209359 -0.000000
v 0.266398 0.082682 -0.000000
v 0.266398 -0.082682 0.000000
v 0.372692 -0.209359 0.000000
v 0.535545 -0.238074 0.000000
v 0.678754 -0.155392 0.000000
v 0.618584 -0.000000 -0.397540
v 0.571004 0.155392 -0.366962
v 0.450529 0.238074 -0.289537
v 0.313529 0.209359 -0.201493
v 0.224109 0.082682 -0.144026
v 0.224109 -0.082682 -0.144026
v 0.313529 -0.209359 -0.201493
v 0.450529 -0.238074 -0.289537
v 0.571004 -0.155392 -0.366962
v 0.305460 -0.000000 -0.668863
v 0.281965 0.155392 -0.617416
v 0.222473 0.238074 -0.487148
v 0.154822 0.209358 -0.339013
v 0.110666 0.082682 -0.242324
v 0.110666 -0.082682 -0.242324
v 0.154822 -0.209359 -0.339013
v 0.222473 -0.238074 -0.487148
v 0.281965 -0.155392 -0.617416
v -0.104646 -0.000000 -0.727828
v -0.096597 0.155392 -0.671845
v -0.076216 0.238074 -0.530093
v -0.053040 0.209358 -0.368899
v -0.037912 0.082682 -0.263687
v -0.037912 -0.082682 -0.263687
v -0.053040 -0.209359 -0.368899
v -0.076216 -0.238074 -0.530093
v -0.096597 -0.155392 -0.671845
v -0.481527 -0.000000 -0.555712
v -0.444489 0.155392 -0.512968
v -0.350707 0.238074 -0.404738
v -0.244062 0.209359 -0.281662
v -0.174454 0.082682 -0.201330
v -0.174454 -0.082682 -0.201330
v -0.244062 -0.209359 -0.281662
v -0.350707 -0.238074 -0.404738
v -0.444489 -0.155392 -0.512968
v -0.705527 -0.000000 -0.207161
v -0.651260 0.155392 -0.191227
v -0.513851 0.238074 -0.150880
v -0.357596 0.209359 -0.105000
v -0.255607 0.082682 -0.075053
v -0.255607 -0.082682 -0.075053
v -0.357596 -0.209359 -0.104999
v -0.513851 -0.238074 -0.150880
v -0.651260 -0.155392 -0.191227
v -0.705527 0.000000 0.207161
v -0.651260 0.155392 0.191227
v -0.513851 0.238074 0.150880
v -0.357596 0.209359 0.104999
v -0.255607 0.082682 0.075053
v -0.255607 -0.082682 0.075053
v -0.357596 -0.209359 0.105000
v -0.513851 -0.238074 0.150880
v -0.651260 -0.155392 0.191227
v -0.481527 0.000000 0.555712
v -0.444490 0.155392 0.512968
v -0.350707 0.238074 0.404737
v -0.244062 0.209359 0.281662
v -0.174454 0.082682 0.201330
v -0.174454 -0.082682 0.201330
v -0.244062 -0.209359 0.281662
v -0.350707 -0.238074 0.404737
v -0.444490 -0.155392 0.512968
v -0.104646 0.000000 0.727828
v -0.096597 0.155392 0.671845
v -0.076216 0.238074 0.530093
v -0.053040 0.209359 0.368899
v -0.037913 0.082682 0.263687
v -0.037913 -0.082682 0.263687
v -0.053040 -0.209358 0.368899
v -0.076216 -0.238074 0.530093
v -0.096597 -0.155392 0.671845
v 0.305460 0.000000 0.668863
v 0.281965 0.155392 0.617416
v 0.222473 0.238074 0.487148
v 0.154822 0.209359 0.339013
v 0.110666 0.082682 0.242324
v 0.110666 -0.082682 0.242324
v 0.154822 -0.209358 0.339013
v 0.222473 -0.238074 0.487148
v 0.281965 -0.155392 0.617416
v 0.618584 0.000000 0.397540
v 0.571004 0.155392 0.366962
v 0.450529 0.238074 0.289537
v 0.313529 0.209359 0.201493
v 0.224109 0.082682 0.144026
v 0.224109 -0.082682 0.144026
v 0.313529 -0.209359 0.201493
v 0.450529 -0.238074 0.289537
v 0.571004 -0.155392 0.366962
v 0.730000 -0.069053 0.000000
v 0.673851 0.085216 -0.000000
v 0.531675 0.167301 -0.000000
v 0.370000 0.138793 -0.000000
v 0.264474 0.013032 -0.000000
v 0.264474 -0.151138 0.000000
v 0.370000 -0.276899 0.000000
v 0.531675 -0.305407 0.000000
v 0.673851 -0.223322 0.000000
v 0.614115 -0.069053 -0.394668
v 0.566879 0.085216 -0.364311
v 0.447274 0.167301 -0.287445
v 0.311264 0.138793 -0.200037
v 0.222489 0.013032 -0.142985
v 0.222489 -0.151138 -0.142985
v 0.311264 -0.276899 -0.200037
v 0.447274 -0.305407 -0.287445
v 0.566879 -0.223322 -0.364311
v 0.303253 -0.069053 -0.664031
v 0.279928 0.085216 -0.612956
v 0.220866 0.167301 -0.483629
v 0.153704 0.138793 -0.336564
v 0.109866 0.013032 -0.240574
v 0.109866 -0.151138 -0.240574
v 0.153704 -0.276899 -0.336564
v 0.220866 -0.305407 -0.483629
v 0.279928 -0.223322 -0.612956
v -0.103890 -0.069053 -0.722570
v -0.095899 0.085216 -0.666992
v -0.075665 0.167301 -0.526264
v -0.052657 0.138793 -0.366234
v -0.037639 0.013032 -0.261782
v -0.037639 -0.151138 -0.261782
v -0.052657 -0.276899 -0.366234
v -0.075665 -0.305407 -0.526264
v -0.095899 -0.223322 -0.666992
v -0.478048 -0.069053 -0.551697
v -0.441278 0.085216 -0.509262
v -0.348173 0.167301 -0.401814
v -0.242298 0.138793 -0.279627
v -0.173193 0.013032 -0.199876
v -0.173193 -0.151138 -0.199876
v -0.242298 -0.276899 -0.279627
v -0.348173 -0.305407 -0.401814
v -0.441278 -0.223322 -0.509262
v -0.700430 -0.069053 -0.205665
v -0.646555 0.085216 -0.189846
v -0.510139 0.167301 -0.149790
v -0.355012 0.138793 -0.104241
v -0.253761 0.013032 -0.074511
v -0.253761 -0.151138 -0.074511
v -0.355012 -0.276899 -0.104241
v -0.510139 -0.305407 -0.149790
v -0.646555 -0.223322 -0.189845
v -0.700430 -0.069053 0.205665
v -0.646555 0.085216 0.189846
v -0.510139 0.167301 0.149790
v -0.355012 0.138793 0.104241
v -0.253761 0.013032 0.074511
v -0.253761 -0.151138 0.074511
v -0.355012 -0.276899 0.104241
v -0.510139 -0.305407 0.149790
v -0.646555 -0.223322 0.189846
v -0.478049 -0.069053 0.551697
v -0.441278 0.085216 0.509262
v -0.348174 0.167301 0.401813
v -0.242299 0.138793 0.279627
v -0.173194 0.013032 0.199876
v -0.173194 -0.151138 0.199876
v -0.242299 -0.276899 0.279627
v -0.348174 -0.305407 0.401813
v -0.441278 -0.223322 0.509262
v -0.103890 -0.069053 0.722570
v -0.095899 0.085216 0.666992
v -0.075666 0.167301 0.526264
v -0.052657 0.138793 0.366234
v -0.037639 0.013032 0.261782
v -0.037639 -0.151138 0.261782
v -0.052657 -0.276899 0.366234
v -0.075666 -0.305407 0.526264
v -0.095899 -0.223322 0.666992
v 0.303253 -0.069053 0.664031
v 0.279928 0.085216 0.612956
v 0.220866 0.167301 0.483629
v 0.153704 0.138793 0.336564
v 0.109866 0.013032 0.240574
v 0.109866 -0.151138 0.240574
v 0.153704 -0.276899 0.336564
v 0.220866 -0.305407 0.483629
v 0.279928 -0.223322 0.612956
v 0.614115 -0.069053 0.394668
v 0.566879 0.085216 0.364311
v 0.447274 0.167301 0.287445
v 0.311264 0.138793 0.200037
v 0.222489 0.013032 0.142985
v 0.222489 -0.151138 0.142985
v 0.311264 -0.276899 0.200037
v 0.447274 -0.305407 0.287446
v 0.566879 -0.223322 0.364311
vn 0.9058 0.3297 -0.2660
vn 0.4947 0.8568 -0.1453
vn -0.1734 0.9835 0.0509
vn -0.7474 0.6271 0.2194
vn -0.9595 -0.0000 0.2817
vn -0.7474 -0.6271 0.2194
vn -0.1734 -0.9835 0.0509
vn 0.4947 -0.8568 -0.1453
vn 0.9058 -0.3297 -0.2660
vn 0.6182 0.3297 -0.7135
vn 0.3376 0.8568 -0.3897
vn -0.1184 0.9835 0.1366
vn -0.5101 0.6271 0.5887
vn -0.6549 -0.0000 0.7557
vn -0.5101 -0.6271 0.5887
vn -0.1184 -0.9835 0.1366
vn 0.3376 -0.8568 -0.3897
vn 0.6182 -0.3297 -0.7135
vn 0.1344 0.3297 -0.9345
vn 0.0734 0.8568 -0.5103
vn -0.0257 0.9835 0.1789
vn -0.1109 0.6271 0.7710
vn -0.1423 -0.0000 0.9898
vn -0.1109 -0.6271 0.7710
vn -0.0257 -0.9835 0.1789
vn 0.0734 -0.8568 -0.5103
vn 0.1344 -0.3297 -0.9345
vn -0.3922 0.3297 -0.8588
vn -0.2142 0.8568 -0.4690
vn 0.0751 0.9835 0.1644
vn 0.3236 0.6271 0.7085
vn 0.4154 -0.0000 0.9096
vn 0.3236 -0.6271 0.7085
vn 0.0751 -0.9835 0.1644
vn -0.2142 -0.8568 -0.4690
vn -0.3922 -0.3297 -0.8588
vn -0.7942 0.3297 -0.5104
vn -0.4337 0.8568 -0.2787
vn 0.1521 0.9835 0.0977
vn 0.6553 0.6271 0.4211
vn 0.8413 -0.0000 0.5406
vn 0.6553 -0.6271 0.4211
vn 0.1521 -0.9835 0.0977
vn -0.4337 -0.8568 -0.2787
vn -0.7942 -0.3297 -0.5104
vn -0.9441 0.3297 -0.0000
vn -0.5156 0.8568 -0.0000
vn 0.1807 0.9835 -0.0000
vn 0.7789 0.6271 -0.0000
vn 1.0000 -0.0000 -0.0000
vn 0.7789 -0.6271 -0.0000
vn 0.1807 -0.9835 -0.0000
vn -0.5156 -0.8568 -0.0000
vn -0.9441 -0.3297 -0.0000
vn -0.7942 0.3297 0.5104
vn -0.4337 0.8568 0.2787
vn 0.1521 0.9835 -0.0977
vn 0.6553 0.6271 -0.4211
vn 0.8413 -0.0000 -0.5406
vn 0.6553 -0.6271 -0.4211
vn 0.1521 -0.9835 -0.0977
vn -0.4337 -0.8568 0.2787
vn -0.7942 -0.3297 0.5104
vn -0.3922 0.3297 0.8588
vn -0.2142 0.8568 0.4690
vn 0.0751 0.9835 -0.1644
vn 0.3236 0.6271 -0.7085
vn 0.4154 -0.0000 -0.9096
vn 0.3236 -0.6271 -0.7085
vn 0.0751 -0.9835 -0.1644
vn -0.2142 -0.8568 0.4690
vn -0.3922 -0.3297 0.8588
vn 0.1344 0.3297 0.9345
vn 0.0734 0.8568 0.5103
vn -0.0257 0.9835 -0.1789
vn -0.1109 0.6271 -0.7710
vn -0.1423 -0.0000 -0.9898
vn -0.1109 -0.6271 -0.7710
vn -0.0257 -0.9835 -0.1789
vn 0.0734 -0.8568 0.5103
vn 0.1344 -0.3297 0.9345
vn 0.6182 0.3297 0.7135
vn 0.3376 0.8568 0.3897
vn -0.1184 0.9835 -0.1366
vn -0.5101 0.6271 -0.5887
vn -0.6549 -0.0000 -0.7557
vn -0.5101 -0.6271 -0.5887
vn -0.1184 -0.9835 -0.1366
vn 0.3376 -0.8568 0.3897
vn 0.6182 -0.3297 0.7135
vn 0.9058 0.3297 0.2660
vn 0.4947 0.8568 0.1453
vn -0.1734 0.9835 -0.0509
vn -0.7474 0.6271 -0.2194
vn -0.9595 -0.0000 -0.2817
vn -0.7474 -0.6271 -0.2194
vn -0.1734 -0.9835 -0.0509
vn 0.4947 -0.8568 0.1453
vn 0.9058 -0.3297 0.2660
vt 0.545455 0.555556
vt 0.636364 0.555556
vt 0.636364 0.666667
vt 0.545455 0.666667
vt 0.636364 0.777778
vt 0.545455 0.777778
vt 0.636364 0.888889
vt 0.545455 0.888889
vt 0.636364 1.000000
vt 0.545455 1.000000
vt 0.545455 0.000000
vt 0.636364 0.000000
vt 0.636364 0.111111
vt 0.545455 0.111111
vt 0.636364 0.222222
vt 0.545455 0.222222
vt 0.636364 0.333333
vt 0.545455 0.333333
vt 0.636364 0.444444
vt 0.545455 0.444444
vt 0.727273 0.555556
vt 0.727273 0.666667
vt 0.727273 0.777778
vt 0.727273 0.888889
vt 0.727273 1.000000
vt 0.727273 0.000000
vt 0.727273 0.111111
vt 0.727273 0.222222
vt 0.727273 0.333333
vt 0.727273 0.444444
vt 0.818182 0.555556
vt 0.818182 0.666667
vt 0.818182 0.777778
vt 0.818182 0.888889
vt 0.818182 1.000000
vt 0.818182 0.000000
vt 0.818182 0.111111
vt 0.818182 0.222222
vt 0.818182 0.333333
vt 0.818182 0.444444
vt 0.909091 0.555556
vt 0.909091 0.666667
vt 0.909091 0.777778
vt 0.909091 0.888889
vt 0.909091 1.000000
vt 0.909091 0.000000
vt 0.909091 0.111111
vt 0.909091 0.222222
vt 0.909091 0.333333
vt 0.909091 0.444444
vt 1.000000 0.555556
vt 1.000000 0.666667
vt 1.000000 0.777778
vt 1.000000 0.888889
vt 1.000000 1.000000
vt 1.000000 0.000000
vt 1.000000 0.111111
vt 1.000000 0.222222
vt 1.000000 0.333333
vt 1.000000 0.444444
vt 0.000000 0.555556
vt 0.090909 0.555556
vt 0.090909 0.666667
vt 0.000000 0.666667
vt 0.090909 0.777778
vt 0.000000 0.777778
vt 0.090909 0.888889
vt 0.000000 0.888889
vt 0.090909 1.000000
vt 0.000000 1.000000
vt 0.000000 0.000000
vt 0.090909 0.000000
vt 0.090909 0.111111
vt 0.000000 0.111111
vt 0.090909 0.222222
vt 0.000000 0.222222
vt 0.090909 0.333333
vt 0.000000 0.333333
vt 0.090909 0.444444
vt 0.000000 0.444444
vt 0.181818 0.555556
vt 0.181818 0.666667
vt 0.181818 0.777778
vt 0.181818 0.888889
vt 0.181818 1.000000
vt 0.181818 0.000000
vt 0.181818 0.111111
vt 0.181818 0.222222
vt 0.181818 0.333333
vt 0.181818 0.444444
vt 0.272727 0.555556
vt 0.272727 0.666667
vt 0.272727 0.777778
vt 0.272727 0.888889
vt 0.272727 1.000000
vt 0.272727 0.000000
vt 0.272727 0.111111
vt 0.272727 0.222222
vt 0.272727 0.333333
vt 0.272727 0.444444
vt 0.363636 0.555556
vt 0.363636 0.666667
vt 0.363636 0.777778
vt 0.363636 0.888889
vt 0.363636 1.000000
vt 0.363636 0.000000
vt 0.363636 0.111111
vt 0.363636 0.222222
vt 0.363636 0.333333
vt 0.363636 0.444444
vt 0.454545 0.555556
vt 0.454545 0.666667
vt 0.454545 0.777778
vt 0.454545 0.888889
vt 0.454545 1.000000
vt 0.454545 0.000000
vt 0.454545 0.111111
vt 0.454545 0.222222
vt 0.454545 0.333333
vt 0.454545 0.444444
s 1
usemtl Material.001
f 1/1/1 10/2/1 11/3/1 2/4/1
f 2/4/2 11/3/2 12/5/2 3/6/2
f 3/6/3 12/5/3 13/7/3 4/8/3
f 4/8/4 13/7/4 14/9/4 5/10/4
f 5/11/5 14/12/5 15/13/5 6/14/5
f 6/14/6 15/13/6 16/15/6 7/16/6
f 7/16/7 16/15/7 17/17/7 8/18/7
f 8/18/8 17/17/8 18/19/8 9/20/8
f 9/20/9 18/19/9 10/2/9 1/1/9
f 10/2/10 19/21/10 20/22/10 11/3/10
f 11/3/11 20/22/11 21/23/11 12/5/11
f 12/5/12 21/23/12 22/24/12 13/7/12
f 13/7/13 22/24/13 23/25/13 14/9/13
f 14/12/14 23/26/14 24/27/14 15/13/14
f 15/13/15 24/27/15 25/28/15 16/15/15
f 16/15/16 25/28/16 26/29/16 17/17/16
f 17/17/17 26/29/17 27/30/17 18/19/17
f 18/19/18 27/30/18 19/21/18 10/2/18
f 19/21/19 28/31/19 29/32/19 20/22/19
f 20/22/20 29/32/20 30/33/20 21/23/20
f 21/23/21 30/33/21 31/34/21 22/24/21
f 22/24/22 31/34/22 32/35/22 23/25/22
f 23/26/23 32/36/23 33/37/23 24/27/23
f 24/27/24 33/37/24 34/38/24 25/28/24
f 25/28/25 34/38/25 35/39/25 26/29/25
f 26/29/26 35/39/26 36/40/26 27/30/26
f 27/30/27 36/40/27 28/31/27 19/21/27
f 28/31/28 37/41/28 38/42/28 29/32/28
f 29/32/29 38/42/29 39/43/29 30/33/29
f 30/33/30 39/43/30 40/44/30 31/34/30
f 31/34/31 40/44/31 41/45/31 32/35/31
f 32/36/32 41/46/32 42/47/32 33/37/32
f 33/37/33 42/47/33 43/48/33 34/38/33
f 34/38/34 43/48/34 44/49/34 35/39/34
f 35/39/35 44/49/35 45/50/35 36/40/35
f 36/40/36 45/50/36 37/41/36 28/31/36
f 37/41/37 46/51/37 47/52/37 38/42/37
f 38/42/38 47/52/38 48/53/38 39/43/38
f 39/43/39 48/53/39 49/54/39 40/44/39
f 40/44/40 49/54/40 50/55/40 41/45/40
f 41/46/41 50/56/41 51/57/41 42/47/41
f 42/47/42 51/57/42 52/58/42 43/48/42
f 43/48/43 52/58/43 53/59/43 44/49/43
f 44/49/44 53/59/44 54/60/44 45/50/44
f 45/50/45 54/60/45 46/51/45 37/41/45
f 46/61/46 55/62/46 56/63/46 47/64/46
f 47/64/47 56/63/47 57/65/47 48/66/47
f 48/66/48 57/65/48 58/67/48 49/68/48
f 49/68/49 58/67/49 59/69/49 50/70/49
f 50/71/50 59/72/50 60/73/50 51/74/50
f 51/74/51 60/73/51 61/75/51 52/76/51
f 52/76/52 61/75/52 62/77/52 53/78/52
f 53/78/53 62/77/53 63/79/53 54/80/53
f 54/80/54 63/79/54 55/62/54 46/61/54
f 55/62/55 64/81/55 65/82/55 56/63/55
f 56/63/56 65/82/56 66/83/56 57/65/56
f 57/65/57 66/83/57 67/84/57 58/67/57
f 58/67/58 67/84/58 68/85/58 59/69/58
f 59/72/59 68/86/59 69/87/59 60/73/59
f 60/73/60 69/87/60 70/88/60 61/75/60
f 61/75/61 70/88/61 71/89/61 62/77/61
f 62/77/62 71/89/62 72/90/62 63/79/62
f 63/79/63 72/90/63 64/81/63 55/62/63
f 64/81/64 73/91/64 74/92/64 65/82/64
f 65/82/65 74/92/65 75/93/65 66/83/65
f 66/83/66 75/93/66 76/94/66 67/84/66
f 67/84/67 76/94/67 77/95/67 68/85/67
f 68/86/68 77/96/68 78/97/68 69/87/68
f 69/87/69 78/97/69 79/98/69 70/88/69
f 70/88/70 79/98/70 80/99/70 71/89/70
f 71/89/71 80/99/71 81/100/71 72/90/71
f 72/90/72 81/100/72 73/91/72 64/81/72
f 73/91/73 82/101/73 83/102/73 74/92/73
f 74/92/74 83/102/74 84/103/74 75/93/74
f 75/93/75 84/103/75 85/104/75 76/94/75
f 76/94/76 85/104/76 86/105/76 77/95/76
f 77/96/77 86/106/77 87/107/77 78/97/77
f 78/97/78 87/107/78 88/108/78 79/98/78
f 79/98/79 88/108/79 89/109/79 80/99/79
f 80/99/80 89/109/80 90/110/80 81/100/80
f 81/100/81 90/110/81 82/101/81 73/91/81
f 82/101/82 91/111/82 92/112/82 83/102/82
f 83/102/83 92/112/83 93/113/83 84/103/83
f 84/103/84 93/113/84 94/114/84 85/104/84
f 85/104/85 94/114/85 95/115/85 86/105/85
f 86/106/86 95/116/86 96/117/86 87/107/86
f 87/107/87 96/117/87 97/118/87 88/108/87
f 88/108/88 97/118/88 98/119/88 89/109/88
f 89/109/89 98/119/89 99/120/89 90/110/89
f 90/110/90 99/120/90 91/111/90 82/101/90
f 91/111/91 1/1/91 2/4/91 92/112/91
f 92/112/92 2/4/92 3/6/92 93/113/92
f 93/113/93 3/6/93 4/8/93 94/114/93
f 94/114/94 4/8/94 5/10/94 95/115/94
f 95/116/95 5/11/95 6/14/95 96/117/95
f 96/117/96 6/14/96 7/16/96 97/118/96
f 97/118/97 7/16/97 8/18/97 98/119/97
f 98/119/98 8/18/98 9/20/98 99/120/98
f 99/120/99 9/20/99 1/1/99 91/111/99
usemtl Material.002
f 100/1/1 109/2/1 110/3/1 101/4/1
f 101/4/2 110/3/2 111/5/2 102/6/2
f 102/6/3 111/5/3 112/7/3 103/8/3
f 103/8/4 112/7/4 113/9/4 104/10/4
f 104/11/5 113/12/5 114/13/5 105/14/5
f 105/14/6 114/13/6 115/15/6 106/16/6
f 106/16/7 115/15/7 116/17/7 107/18/7
f 107/18/8 116/17/8 117/19/8 108/20/8
f 108/20/9 117/19/9 109/2/9 100/1/9
f 109/2/10 118/21/10 119/22/10 110/3/10
f 110/3/11 119/22/11 120/23/11 111/5/11
f 111/5/12 120/23/12 121/24/12 112/7/12
f 112/7/13 121/24/13 122/25/13 113/9/13
f 113/12/14 122/26/14 123/27/14 114/13/14
f 114/13/15 123/27/15 124/28/15 115/15/15
f 115/15/16 124/28/16 125/29/16 116/17/16
f 116/17/17 125/29/17 126/30/17 117/19/17
f 117/19/18 126/30/18 118/21/18 109/2/18
f 118/21/19 127/31/19 128/32/19 119/22/19
f 119/22/20 128/32/20 129/33/20 120/23/20
f 120/23/21 129/33/21 130/34/21 121/24/21
f 121/24/22 130/34/22 131/35/22 122/25/22
f 122/26/23 131/36/23 132/37/23 123/27/23
f 123/27/24 132/37/24 133/38/24 124/28/24
f 124/28/25 133/38/25 134/39/25 125/29/25
f 125/29/26 134/39/26 135/40/26 126/30/26
f 126/30/27 135/40/27 127/31/27 118/21/27
f 127/31/28 136/41/28 137/42/28 128/32/28
f 128/32/29 137/42/29 138/43/29 129/33/29
f 129/33/30 138/43/30 139/44/30 130/34/30
f 130/34/31 139/44/31 140/45/31 131/35/31
f 131/36/32 140/46/32 141/47/32 132/37/32
f 132/37/33 141/47/33 142/48/33 133/38/33
f 133/38/34 142/48/34 143/49/34 134/39/34
f 134/39/35 143/49/35 144/50/35 135/40/35
f 135/40/36 144/50/36 136/41/36 127/31/36
f 136/41/37 145/51/37 146/52/37 137/42/37
f 137/42/38 146/52/38 147/53/38 138/43/38
f 138/43/39 147/53/39 148/54/39 139/44/39
f 139/44/40 148/54/40 149/55/40 140/45/40
f 140/46/41 149/56/41 150/57/41 141/47/41
f 141/47/42 150/57/42 151/58/42 142/48/42
f 142/48/43 151/58/43 152/59/43 143/49/43
f 143/49/44 152/59/44 153/60/44 144/50/44
f 144/50/45 153/60/45 145/51/45 136/41/45
f 145/61/46 154/62/46 155/63/46 146/64/46
f 146/64/47 155/63/47 156/65/47 147/66/47
f 147/66/48 156/65/48 157/67/48 148/68/48
f 148/68/49 157/67/49 158/69/49 149/70/49
f 149/71/50 158/72/50 159/73/50 150/74/50
f 150/74/51 159/73/51 160/75/51 151/76/51
f 151/76/52 160/75/52 161/77/52 152/78/52
f 152/78/53 161/77/53 162/79/53 153/80/53
f 153/80/54 162/79/54 154/62/54 145/61/54
f 154/62/55 163/81/55 164/82/55 155/63/55
f 155/63/56 164/82/56 165/83/56 156/65/56
f 156/65/57 165/83/57 166/84/57 157/67/57
f 157/67/58 166/84/58 167/85/58 158/69/58
f 158/72/59 167/86/59 168/87/59 159/73/59
f 159/73/60 168/87/60 169/88/60 160/75/60
f 160/75/61 169/88/61 170/89/61 161/77/61
f 161/77/62 170/89/62 171/90/62 162/79/62
f 162/79/63 171/90/63 163/81/63 154/62/63
f 163/81/64 172/91/64 173/92/64 164/82/64
f 164/82/65 173/92/65 174/93/65 165/83/65
f 165/83/66 174/93/66 175/94/66 166/84/66
f 166/84/67 175/94/67 176/95/67 167/85/67
f 167/86/68 176/96/68 177/97/68 168/87/68
f 168/87/69 177/97/69 178/98/69 169/88/69
f 169/88/70 178/98/70 179/99/70 170/89/70
f 170/89/71 179/99/71 180/100/71 171/90/71
f 171/90/72 180/100/72 172/91/72 163/81/72
f 172/91/73 181/101/73 182/102/73 173/92/73
f 173/92/74 182/102/74 183/103/74 174/93/74
f 174/93/75 183/103/75 184/104/75 175/94/75
f 175/94/76 184/104/76 185/105/76 176/95/76
f 176/96/77 185/106/77 186/107/77 177/97/77
f 177/97/78 186/107/78 187/108/78 178/98/78
f 178/98/79 187/108/79 188/109/79 179/99/79
f 179/99/80 188/109/80 189/110/80 180/100/80
f 180/100/81 189/110/81 181/101/81 172/91/81
f 181/101/82 190/111/82 191/112/82 182/102/82
f 182/102/83 191/112/83 192/113/83 183/103/83
f 183/103/84 192/113/84 193/114/84 184/104/84
f 184/104/85 193/114/85 194/115/85 185/105/85
f 185/106/86 194/116/86 195/117/86 186/107/86
f 186/107/87 195/117/87 196/118/87 187/108/87
f 187/108/88 196/118/88 197/119/88 188/109/88
f 188/109/89 197/119/89 198/120/89 189/110/89
f 189/110/90 198/120/90 190/111/90 181/101/90
f 190/111/91 100/1/91 101/4/91 191/112/91
f 191/112/92 101/4/92 102/6/92 192/113/92
f 192/113/93 102/6/93 103/8/93 193/114/93
f 193/114/94 103/8/94 104/10/94 194/115/94
f 194/116/95 104/11/95 105/14/95 195/117/95
f 195/117/96 105/14/96 106/16/96 196/118/96
f 196/118/97 106/16/97 107/18/97 197/119/97
f 197/119/98 107/18/98 108/20/98 198/120/98
f 198/120/99 108/20/99 100/1/99 190/111/99
