# Blender 4.0.2
# www.blender.org
mtllib melon.mtl
o Sphere
v 0.000000 0.789026 -0.662071
v 0.000000 0.178858 -1.014352
v 0.000000 -0.178858 -1.014352
v 0.000000 -0.515000 -0.892006
v 0.000000 -0.789026 -0.662071
v 0.000000 -0.967883 -0.352281
v 0.143285 0.967883 -0.321824
v 0.269289 0.789026 -0.604832
v 0.362812 0.515000 -0.814888
v 0.412574 0.178858 -0.926657
v 0.412574 -0.178858 -0.926657
v 0.362812 -0.515000 -0.814888
v 0.269289 -0.789026 -0.604832
v 0.143285 -0.967883 -0.321824
v 0.261796 0.967883 -0.235722
v 0.492015 0.789026 -0.443012
v 0.662890 0.515000 -0.596869
v 0.753810 0.178858 -0.678734
v 0.753810 -0.178858 -0.678734
v 0.662890 -0.515000 -0.596869
v 0.492015 -0.789026 -0.443012
v 0.261796 -0.967883 -0.235722
v 0.335039 0.967883 -0.108861
v 0.629667 0.789026 -0.204591
v 0.848348 0.515000 -0.275645
v 0.964706 0.178858 -0.313452
v 0.964706 -0.178858 -0.313452
v 0.848348 -0.515000 -0.275645
v 0.629667 -0.789026 -0.204591
v 0.335039 -0.967883 -0.108861
v 0.350351 0.967883 0.036823
v 0.658444 0.789026 0.069205
v 0.887119 0.515000 0.093240
v 1.008795 0.178858 0.106029
v 1.008795 -0.178858 0.106029
v 0.887119 -0.515000 0.093240
v 0.658444 -0.789026 0.069205
v 0.350351 -0.967883 0.036823
v 0.305084 0.967883 0.176140
v 0.573370 0.789026 0.331036
v 0.772500 0.515000 0.446003
v 0.878454 0.178858 0.507176
v 0.878454 -0.178858 0.507176
v 0.772500 -0.515000 0.446003
v 0.573370 -0.789026 0.331036
v 0.305084 -0.967883 0.176140
v 0.207065 0.967883 0.285001
v 0.389156 0.789026 0.535627
v 0.524308 0.515000 0.721648
v 0.596221 0.178858 0.820628
v 0.596221 -0.178858 0.820628
v 0.524308 -0.515000 0.721648
v 0.389156 -0.789026 0.535627
v 0.207065 -0.967883 0.285001
v 0.073243 0.967883 0.344582
v 0.137652 0.789026 0.647603
v 0.185458 0.515000 0.872513
v 0.210896 0.178858 0.992186
v 0.210896 -0.178858 0.992186
v 0.185458 -0.515000 0.872513
v 0.137652 -0.789026 0.647603
v 0.073243 -0.967883 0.344582
v -0.073243 0.967883 0.344582
v -0.137652 0.789026 0.647603
v -0.185458 0.515000 0.872513
v -0.210896 0.178858 0.992186
v -0.210896 -0.178858 0.992186
v -0.185458 -0.515000 0.872513
v -0.137652 -0.789026 0.647603
v -0.073243 -0.967883 0.344582
v 0.000000 -1.030000 0.000000
v 0.000000 1.030000 0.000000
v -0.207065 0.967883 0.285001
v -0.389156 0.789026 0.535627
v -0.524308 0.515000 0.721648
v -0.596221 0.178858 0.820628
v -0.596221 -0.178858 0.820628
v -0.524308 -0.515000 0.721648
v -0.389156 -0.789026 0.535627
v -0.207065 -0.967883 0.285001
v -0.305084 0.967883 0.176140
v -0.573371 0.789026 0.331035
v -0.772500 0.515000 0.446003
v -0.878454 0.178858 0.507176
v -0.878454 -0.178858 0.507176
v -0.772500 -0.515000 0.446003
v -0.573371 -0.789026 0.331035
v -0.305084 -0.967883 0.176140
v -0.350351 0.967883 0.036823
v -0.658444 0.789026 0.069205
v -0.887119 0.515000 0.093240
v -1.008795 0.178858 0.106029
v -1.008795 -0.178858 0.106029
v -0.887119 -0.515000 0.093240
v -0.658444 -0.789026 0.069205
v -0.350351 -0.967883 0.036823
v -0.335039 0.967883 -0.108861
v -0.629667 0.789026 -0.204591
v -0.848348 0.515000 -0.275645
v -0.964706 0.178858 -0.313452
v -0.964706 -0.178858 -0.313452
v -0.848348 -0.515000 -0.275645
v -0.629667 -0.789026 -0.204591
v -0.335039 -0.967883 -0.108861
v -0.261795 0.967883 -0.235722
v -0.492015 0.789026 -0.443012
v -0.662889 0.515000 -0.596868
v -0.753810 0.178858 -0.678734
v -0.753810 -0.178858 -0.678734
v -0.662889 -0.515000 -0.596868
v -0.492015 -0.789026 -0.443012
v -0.261795 -0.967883 -0.235722
v -0.143285 0.967883 -0.321824
v -0.269288 0.789026 -0.604832
v -0.362811 0.515000 -0.814888
v -0.412574 0.178858 -0.926656
v -0.412574 -0.178858 -0.926656
v -0.362811 -0.515000 -0.814888
v -0.269288 -0.789026 -0.604832
v -0.143285 -0.967883 -0.321824
v 0.000000 0.967883 -0.352281
v -0.000000 0.515000 -0.892006
vn 0.1959 -0.3354 -0.9215
vn 0.1607 0.6344 -0.7561
vn 0.1607 -0.6344 -0.7561
vn 0.1959 0.3354 -0.9215
vn 0.0369 0.9841 -0.1735
vn 0.1057 -0.8612 -0.4972
vn 0.2079 -0.0000 -0.9781
vn 0.1057 0.8612 -0.4972
vn 0.0369 -0.9841 -0.1735
vn 0.4543 -0.6344 -0.6254
vn 0.5537 0.3354 -0.7622
vn 0.1043 0.9841 -0.1435
vn 0.2988 -0.8612 -0.4112
vn 0.5878 -0.0000 -0.8090
vn 0.2988 0.8612 -0.4112
vn 0.1043 -0.9841 -0.1435
vn 0.5537 -0.3354 -0.7622
vn 0.4543 0.6344 -0.6254
vn 0.8660 -0.0000 -0.5000
vn 0.4402 0.8612 -0.2542
vn 0.1536 -0.9841 -0.0887
vn 0.8159 -0.3354 -0.4710
vn 0.6694 0.6344 -0.3865
vn 0.6694 -0.6344 -0.3865
vn 0.8159 0.3354 -0.4710
vn 0.1536 0.9841 -0.0887
vn 0.4402 -0.8612 -0.2542
vn 0.7687 0.6344 -0.0808
vn 0.7687 -0.6344 -0.0808
vn 0.9369 0.3354 -0.0985
vn 0.1764 0.9841 -0.0185
vn 0.5055 -0.8612 -0.0531
vn 0.9945 -0.0000 -0.1045
vn 0.5055 0.8612 -0.0531
vn 0.1764 -0.9841 -0.0185
vn 0.9369 -0.3354 -0.0985
vn 0.1687 0.9841 0.0548
vn 0.4834 -0.8612 0.1571
vn 0.9511 -0.0000 0.3090
vn 0.4834 0.8612 0.1571
vn 0.1687 -0.9841 0.0548
vn 0.8960 -0.3354 0.2911
vn 0.7351 0.6344 0.2389
vn 0.7351 -0.6344 0.2389
vn 0.8960 0.3354 0.2911
vn 0.7001 -0.3354 0.6304
vn 0.5744 0.6344 0.5172
vn 0.5744 -0.6344 0.5172
vn 0.7001 0.3354 0.6304
vn 0.1318 0.9841 0.1187
vn 0.3777 -0.8612 0.3401
vn 0.7431 -0.0000 0.6691
vn 0.3777 0.8612 0.3401
vn 0.1318 -0.9841 0.1187
vn 0.3832 0.3354 0.8606
vn 0.0722 0.9841 0.1621
vn 0.2067 -0.8612 0.4644
vn 0.4067 -0.0000 0.9135
vn 0.2067 0.8612 0.4644
vn 0.0722 -0.9841 0.1621
vn 0.3832 -0.3354 0.8606
vn 0.3144 0.6344 0.7062
vn 0.3144 -0.6344 0.7062
vn -0.0000 0.8612 0.5083
vn -0.0000 -0.9841 0.1774
vn -0.0000 -0.3354 0.9421
vn -0.0000 0.6344 0.7730
vn -0.0000 -0.6344 0.7730
vn -0.0000 0.3354 0.9421
vn -0.0000 0.9841 0.1774
vn -0.0000 -0.8612 0.5083
vn -0.0000 -0.0000 1.0000
vn -0.3144 -0.6344 0.7062
vn -0.3832 0.3354 0.8606
vn -0.0722 0.9841 0.1621
vn -0.2067 -0.8612 0.4644
vn -0.4067 -0.0000 0.9135
vn -0.2067 0.8612 0.4644
vn -0.0722 -0.9841 0.1621
vn -0.3832 -0.3354 0.8606
vn -0.3144 0.6344 0.7062
vn -0.3777 -0.8612 0.3401
vn -0.7431 -0.0000 0.6691
vn -0.3777 0.8612 0.3401
vn -0.1318 -0.9841 0.1187
vn -0.7001 -0.3354 0.6304
vn -0.5744 0.6344 0.5172
vn -0.5744 -0.6344 0.5172
vn -0.7001 0.3354 0.6304
vn -0.1318 0.9841 0.1187
vn -0.8960 -0.3354 0.2911
vn -0.7351 0.6344 0.2389
vn -0.7351 -0.6344 0.2389
vn -0.8960 0.3354 0.2911
vn -0.1687 0.9841 0.0548
vn -0.4834 -0.8612 0.1571
vn -0.9511 -0.0000 0.3090
vn -0.4834 0.8612 0.1571
vn -0.1687 -0.9841 0.0548
vn -0.9369 0.3354 -0.0985
vn -0.1764 0.9841 -0.0185
vn -0.5055 -0.8612 -0.0531
vn -0.9945 -0.0000 -0.1045
vn -0.5055 0.8612 -0.0531
vn -0.1764 -0.9841 -0.0185
vn -0.9369 -0.3354 -0.0985
vn -0.7687 0.6344 -0.0808
vn -0.7687 -0.6344 -0.0808
vn -0.4402 0.8612 -0.2542
vn -0.1536 -0.9841 -0.0887
vn -0.8159 -0.3354 -0.4710
vn -0.6694 0.6344 -0.3865
vn -0.6694 -0.6344 -0.3865
vn -0.8159 0.3354 -0.4710
vn -0.1536 0.9841 -0.0887
vn -0.4402 -0.8612 -0.2542
vn -0.8660 -0.0000 -0.5000
vn -0.4543 -0.6344 -0.6254
vn -0.5537 0.3354 -0.7622
vn -0.1043 0.9841 -0.1435
vn -0.2988 -0.8612 -0.4112
vn -0.5878 -0.0000 -0.8090
vn -0.2988 0.8612 -0.4112
vn -0.1043 -0.9841 -0.1435
vn -0.5537 -0.3354 -0.7622
vn -0.4543 0.6344 -0.6254
vn -0.2079 -0.0000 -0.9781
vn -0.1057 0.8612 -0.4972
vn -0.0369 -0.9841 -0.1735
vn -0.1959 -0.3354 -0.9215
vn -0.1607 0.6344 -0.7561
vn -0.1607 -0.6344 -0.7561
vn -0.1959 0.3354 -0.9215
vn -0.0369 0.9841 -0.1735
vn -0.1057 -0.8612 -0.4972
vt 0.733333 0.333333
vt 0.733333 0.444444
vt 0.666667 0.444444
vt 0.666667 0.333333
vt 0.733333 0.666667
vt 0.733333 0.777778
vt 0.666667 0.777778
vt 0.666667 0.666667
vt 0.733333 0.222222
vt 0.666667 0.222222
vt 0.733333 0.555556
vt 0.666667 0.555556
vt 0.733333 0.888889
vt 0.700000 1.000000
vt 0.666667 0.888889
vt 0.733333 0.111111
vt 0.666667 0.111111
vt 0.700000 0.000000
vt 0.600000 0.333333
vt 0.600000 0.222222
vt 0.600000 0.666667
vt 0.600000 0.555556
vt 0.633333 1.000000
vt 0.600000 0.888889
vt 0.600000 0.111111
vt 0.600000 0.444444
vt 0.600000 0.777778
vt 0.633333 0.000000
vt 0.533333 0.555556
vt 0.533333 0.444444
vt 0.533333 0.888889
vt 0.533333 0.777778
vt 0.566667 0.000000
vt 0.533333 0.111111
vt 0.533333 0.333333
vt 0.533333 0.666667
vt 0.533333 0.222222
vt 0.566667 1.000000
vt 0.466667 0.777778
vt 0.466667 0.666667
vt 0.466667 0.333333
vt 0.466667 0.222222
vt 0.466667 0.555556
vt 0.500000 1.000000
vt 0.466667 0.888889
vt 0.466667 0.111111
vt 0.466667 0.444444
vt 0.500000 0.000000
vt 0.433333 1.000000
vt 0.400000 0.888889
vt 0.400000 0.222222
vt 0.400000 0.111111
vt 0.400000 0.555556
vt 0.400000 0.444444
vt 0.400000 0.777778
vt 0.433333 0.000000
vt 0.400000 0.333333
vt 0.400000 0.666667
vt 0.333333 0.444444
vt 0.333333 0.333333
vt 0.333333 0.777778
vt 0.333333 0.666667
vt 0.333333 0.222222
vt 0.333333 0.555556
vt 0.366667 1.000000
vt 0.333333 0.888889
vt 0.333333 0.111111
vt 0.366667 0.000000
vt 0.266667 0.666667
vt 0.266667 0.555556
vt 0.300000 1.000000
vt 0.266667 0.888889
vt 0.266667 0.222222
vt 0.266667 0.111111
vt 0.266667 0.444444
vt 0.266667 0.777778
vt 0.300000 0.000000
vt 0.266667 0.333333
vt 0.200000 0.888889
vt 0.200000 0.777778
vt 0.233333 0.000000
vt 0.200000 0.111111
vt 0.200000 0.444444
vt 0.200000 0.333333
vt 0.200000 0.666667
vt 0.200000 0.222222
vt 0.200000 0.555556
vt 0.233333 1.000000
vt 0.133333 0.333333
vt 0.133333 0.222222
vt 0.133333 0.666667
vt 0.133333 0.555556
vt 0.166667 1.000000
vt 0.133333 0.888889
vt 0.133333 0.111111
vt 0.133333 0.444444
vt 0.133333 0.777778
vt 0.166667 0.000000
vt 0.066667 0.222222
vt 0.066667 0.111111
vt 0.066667 0.555556
vt 0.066667 0.444444
vt 0.066667 0.888889
vt 0.066667 0.777778
vt 0.100000 0.000000
vt 0.066667 0.333333
vt 0.066667 0.666667
vt 0.100000 1.000000
vt 0.000000 0.444444
vt 0.000000 0.333333
vt 0.000000 0.777778
vt 0.000000 0.666667
vt 0.000000 0.222222
vt 0.000000 0.555556
vt 0.033333 1.000000
vt 0.000000 0.888889
vt 0.000000 0.111111
vt 0.033333 0.000000
vt 1.000000 0.555556
vt 1.000000 0.666667
vt 0.933333 0.666667
vt 0.933333 0.555556
vt 1.000000 0.888889
vt 0.966667 1.000000
vt 0.933333 0.888889
vt 1.000000 0.111111
vt 1.000000 0.222222
vt 0.933333 0.222222
vt 0.933333 0.111111
vt 1.000000 0.444444
vt 0.933333 0.444444
vt 1.000000 0.777778
vt 0.933333 0.777778
vt 0.966667 0.000000
vt 1.000000 0.333333
vt 0.933333 0.333333
vt 0.866667 0.888889
vt 0.866667 0.777778
vt 0.900000 0.000000
vt 0.866667 0.111111
vt 0.866667 0.444444
vt 0.866667 0.333333
vt 0.866667 0.666667
vt 0.866667 0.222222
vt 0.866667 0.555556
vt 0.900000 1.000000
vt 0.800000 0.333333
vt 0.800000 0.222222
vt 0.800000 0.666667
vt 0.800000 0.555556
vt 0.833333 1.000000
vt 0.800000 0.888889
vt 0.800000 0.111111
vt 0.800000 0.444444
vt 0.800000 0.777778
vt 0.833333 0.000000
vt 0.766667 0.000000
vt 0.766667 1.000000
s 0
f 4/1/1 3/2/1 11/3/1 12/4/1
f 122/5/2 1/6/2 8/7/2 9/8/2
f 5/9/3 4/1/3 12/4/3 13/10/3
f 2/11/4 122/5/4 9/8/4 10/12/4
f 121/13/5 72/14/5 7/15/5
f 6/16/6 5/9/6 13/10/6 14/17/6
f 3/2/7 2/11/7 10/12/7 11/3/7
f 1/6/8 121/13/8 7/15/8 8/7/8
f 71/18/9 6/16/9 14/17/9
f 13/10/10 12/4/10 20/19/10 21/20/10
f 10/12/11 9/8/11 17/21/11 18/22/11
f 7/15/12 72/23/12 15/24/12
f 14/17/13 13/10/13 21/20/13 22/25/13
f 11/3/14 10/12/14 18/22/14 19/26/14
f 8/7/15 7/15/15 15/24/15 16/27/15
f 71/28/16 14/17/16 22/25/16
f 12/4/17 11/3/17 19/26/17 20/19/17
f 9/8/18 8/7/18 16/27/18 17/21/18
f 19/26/19 18/22/19 26/29/19 27/30/19
f 16/27/20 15/24/20 23/31/20 24/32/20
f 71/33/21 22/25/21 30/34/21
f 20/19/22 19/26/22 27/30/22 28/35/22
f 17/21/23 16/27/23 24/32/23 25/36/23
f 21/20/24 20/19/24 28/35/24 29/37/24
f 18/22/25 17/21/25 25/36/25 26/29/25
f 15/24/26 72/38/26 23/31/26
f 22/25/27 21/20/27 29/37/27 30/34/27
f 25/36/28 24/32/28 32/39/28 33/40/28
f 29/37/29 28/35/29 36/41/29 37/42/29
f 26/29/30 25/36/30 33/40/30 34/43/30
f 23/31/31 72/44/31 31/45/31
f 30/34/32 29/37/32 37/42/32 38/46/32
f 27/30/33 26/29/33 34/43/33 35/47/33
f 24/32/34 23/31/34 31/45/34 32/39/34
f 71/48/35 30/34/35 38/46/35
f 28/35/36 27/30/36 35/47/36 36/41/36
f 31/45/37 72/49/37 39/50/37
f 38/46/38 37/42/38 45/51/38 46/52/38
f 35/47/39 34/43/39 42/53/39 43/54/39
f 32/39/40 31/45/40 39/50/40 40/55/40
f 71/56/41 38/46/41 46/52/41
f 36/41/42 35/47/42 43/54/42 44/57/42
f 33/40/43 32/39/43 40/55/43 41/58/43
f 37/42/44 36/41/44 44/57/44 45/51/44
f 34/43/45 33/40/45 41/58/45 42/53/45
f 44/57/46 43/54/46 51/59/46 52/60/46
f 41/58/47 40/55/47 48/61/47 49/62/47
f 45/51/48 44/57/48 52/60/48 53/63/48
f 42/53/49 41/58/49 49/62/49 50/64/49
f 39/50/50 72/65/50 47/66/50
f 46/52/51 45/51/51 53/63/51 54/67/51
f 43/54/52 42/53/52 50/64/52 51/59/52
f 40/55/53 39/50/53 47/66/53 48/61/53
f 71/68/54 46/52/54 54/67/54
f 50/64/55 49/62/55 57/69/55 58/70/55
f 47/66/56 72/71/56 55/72/56
f 54/67/57 53/63/57 61/73/57 62/74/57
f 51/59/58 50/64/58 58/70/58 59/75/58
f 48/61/59 47/66/59 55/72/59 56/76/59
f 71/77/60 54/67/60 62/74/60
f 52/60/61 51/59/61 59/75/61 60/78/61
f 49/62/62 48/61/62 56/76/62 57/69/62
f 53/63/63 52/60/63 60/78/63 61/73/63
f 56/76/64 55/72/64 63/79/64 64/80/64
f 71/81/65 62/74/65 70/82/65
f 60/78/66 59/75/66 67/83/66 68/84/66
f 57/69/67 56/76/67 64/80/67 65/85/67
f 61/73/68 60/78/68 68/84/68 69/86/68
f 58/70/69 57/69/69 65/85/69 66/87/69
f 55/72/70 72/88/70 63/79/70
f 62/74/71 61/73/71 69/86/71 70/82/71
f 59/75/72 58/70/72 66/87/72 67/83/72
f 69/86/73 68/84/73 78/89/73 79/90/73
f 66/87/74 65/85/74 75/91/74 76/92/74
f 63/79/75 72/93/75 73/94/75
f 70/82/76 69/86/76 79/90/76 80/95/76
f 67/83/77 66/87/77 76/92/77 77/96/77
f 64/80/78 63/79/78 73/94/78 74/97/78
f 71/98/79 70/82/79 80/95/79
f 68/84/80 67/83/80 77/96/80 78/89/80
f 65/85/81 64/80/81 74/97/81 75/91/81
f 80/95/82 79/90/82 87/99/82 88/100/82
f 77/96/83 76/92/83 84/101/83 85/102/83
f 74/97/84 73/94/84 81/103/84 82/104/84
f 71/105/85 80/95/85 88/100/85
f 78/89/86 77/96/86 85/102/86 86/106/86
f 75/91/87 74/97/87 82/104/87 83/107/87
f 79/90/88 78/89/88 86/106/88 87/99/88
f 76/92/89 75/91/89 83/107/89 84/101/89
f 73/94/90 72/108/90 81/103/90
f 86/106/91 85/102/91 93/109/91 94/110/91
f 83/107/92 82/104/92 90/111/92 91/112/92
f 87/99/93 86/106/93 94/110/93 95/113/93
f 84/101/94 83/107/94 91/112/94 92/114/94
f 81/103/95 72/115/95 89/116/95
f 88/100/96 87/99/96 95/113/96 96/117/96
f 85/102/97 84/101/97 92/114/97 93/109/97
f 82/104/98 81/103/98 89/116/98 90/111/98
f 71/118/99 88/100/99 96/117/99
f 92/119/100 91/120/100 99/121/100 100/122/100
f 89/123/101 72/124/101 97/125/101
f 96/126/102 95/127/102 103/128/102 104/129/102
f 93/130/103 92/119/103 100/122/103 101/131/103
f 90/132/104 89/123/104 97/125/104 98/133/104
f 71/134/105 96/126/105 104/129/105
f 94/135/106 93/130/106 101/131/106 102/136/106
f 91/120/107 90/132/107 98/133/107 99/121/107
f 95/127/108 94/135/108 102/136/108 103/128/108
f 98/133/109 97/125/109 105/137/109 106/138/109
f 71/139/110 104/129/110 112/140/110
f 102/136/111 101/131/111 109/141/111 110/142/111
f 99/121/112 98/133/112 106/138/112 107/143/112
f 103/128/113 102/136/113 110/142/113 111/144/113
f 100/122/114 99/121/114 107/143/114 108/145/114
f 97/125/115 72/146/115 105/137/115
f 104/129/116 103/128/116 111/144/116 112/140/116
f 101/131/117 100/122/117 108/145/117 109/141/117
f 111/144/118 110/142/118 118/147/118 119/148/118
f 108/145/119 107/143/119 115/149/119 116/150/119
f 105/137/120 72/151/120 113/152/120
f 112/140/121 111/144/121 119/148/121 120/153/121
f 109/141/122 108/145/122 116/150/122 117/154/122
f 106/138/123 105/137/123 113/152/123 114/155/123
f 71/156/124 112/140/124 120/153/124
f 110/142/125 109/141/125 117/154/125 118/147/125
f 107/143/126 106/138/126 114/155/126 115/149/126
f 117/154/127 116/150/127 2/11/127 3/2/127
f 114/155/128 113/152/128 121/13/128 1/6/128
f 71/157/129 120/153/129 6/16/129
f 118/147/130 117/154/130 3/2/130 4/1/130
f 115/149/131 114/155/131 1/6/131 122/5/131
f 119/148/132 118/147/132 4/1/132 5/9/132
f 116/150/133 115/149/133 122/5/133 2/11/133
f 113/152/134 72/158/134 121/13/134
f 120/153/135 119/148/135 5/9/135 6/16/135
